<svg height="1024" width="1024" xmlns="http://www.w3.org/2000/svg"><path d="M320,320H192c-64,0-64,64-64,64h256C384,384,384,320,320,320z M320,448H192c-64,0-64,64-64,64h256C384,512,384,448,320,448z
	 M320,576H192c-64,0-64,64-64,64h256C384,640,384,576,320,576z M768,320H640c-64,0-64,64-64,64h256C832,384,832,320,768,320z
	 M768,448H640c-64,0-64,64-64,64h256C832,512,832,448,768,448z M768,576H640c-64,0-64,64-64,64h256C832,640,832,576,768,576z
	 M608,160c-64,0-128,64-128,64s-64-64-128-64C192,160,0,224,0,224v608l448-32c0,0-1.281,32,31.375,32C512,832,512,800,512,800
	l448,32V224C960,224,768,160,608,160z M448,768c0,0,1.031-64-64-64c-193.031,0-320,64-320,64V256c0,0,128-32,256-32
	c64,0,128,64,128,64V768z M896,736c0,0-97-32-320-32c-62,0-64,64-64,64V288c0,0,64-64,128-64c128,0,256,64,256,64V736z"/></svg>
