<svg height="1024" width="896" xmlns="http://www.w3.org/2000/svg"><path d="M448,960h320V640H448V960z M64,960h320V640H64V960z M447.75,376.188c31.469-3.5,66.875-7.406,87.375-9.719
	C619,357.125,694.5,281.594,703.812,197.75c9.312-83.75-51-144.125-134.688-134.719C503.688,70.344,443.844,118,416,178.375
	C388.156,118,328.312,70.344,262.906,62.969C179.188,53.625,118.781,114,128.188,197.75
	c9.344,83.844,84.875,159.312,168.656,168.719c20.531,2.312,55.938,6.281,87.406,9.719C383.75,380.406,384,384,384,384h64
	C448,384,448.25,380.406,447.75,376.188z M555.375,140.688c45.25-5.062,78,27.562,72.875,72.875
	c-5,45.312-45.875,86.156-91.125,91.219c-45.375,5.031-78-27.594-72.938-72.906C469.249,186.564,510.125,145.719,555.375,140.688z
	 M294.906,304.781c-45.25-5.062-86.062-45.906-91.125-91.219c-5.063-45.313,27.594-77.938,72.812-72.875
	c45.312,5.031,86.156,45.875,91.222,91.188C372.875,277.188,340.219,309.812,294.906,304.781z M448,384v192h384V384H448z M0,576h384
	V384H0V576z"/></svg>
