<svg height="1024" width="768" xmlns="http://www.w3.org/2000/svg"><path d="M128,64C57.344,64,0,121.344,0,192c0,47.219,25.906,88.062,64,110.281V721.75C25.906,743.938,0,784.75,0,832
	c0,70.625,57.344,128,128,128s128-57.375,128-128c0-47.25-25.844-88.062-64-110.25V302.281c38.156-22.219,64-63.062,64-110.281
	C256,121.344,198.656,64,128,64z M128,896c-35.312,0-64-28.625-64-64c0-35.312,28.688-64,64-64c35.406,0,64,28.688,64,64
	C192,867.375,163.406,896,128,896z M128,256c-35.312,0-64-28.594-64-64s28.688-64,64-64c35.406,0,64,28.594,64,64
	S163.406,256,128,256z M704,721.75V320c0-192.5-192-192-192-192h-64V0L256,192l192,192V256c0,0,26.688,0,64,0c56.438,0,64,64,64,64
	v401.75c-38.125,22.188-64,62.938-64,110.25c0,70.625,57.375,128,128,128s128-57.375,128-128C768,784.75,742.125,743.938,704,721.75
	z M640,896c-35.312,0-64-28.625-64-64c0-35.312,28.688-64,64-64c35.375,0,64,28.688,64,64C704,867.375,675.375,896,640,896z"/></svg>
