<svg height="1024" width="896" xmlns="http://www.w3.org/2000/svg"><path d="M768,384h-64H576h-64h-64h-64h-64H192h-64C57.344,384,0,441.344,0,512v64c0,47.25,25.844,88.062,64,110.25
	V896h256v128h256V896h256V686.25c38.125-22.188,64-62.938,64-110.25v-64C896,441.344,838.625,384,768,384z M256,832H128V576H64v-64
	c0-35.312,28.688-64,64-64h81.719c-11,18.875-17.719,40.562-17.719,64v128c0,47.25,25.844,88.062,64,110.25V832z M576,704V576h-64
	v384H384V576h-64v128c-35.312,0-64-28.625-64-64V512c0-35.312,28.688-64,64-64h256c35.375,0,64,28.688,64,64v128
	C640,675.375,611.375,704,576,704z M832,576h-64v256H640v-81.75c38.125-22.188,64-62.938,64-110.25V512
	c0-23.438-6.75-45.125-17.75-64H768c35.375,0,64,28.688,64,64V576z M303.688,317.375C338.875,357.875,390.156,384,448,384
	c57.875,0,109.125-26.125,144.312-66.625C614.125,356.938,655.688,384,704,384c70.625,0,128-57.344,128-128s-57.375-128-128-128
	c-25.625,0-49.375,7.688-69.375,20.688C614.875,63.562,539.062,0,448,0S281.094,63.562,261.375,148.688
	C241.344,135.688,217.594,128,192,128c-70.656,0-128,57.344-128,128s57.344,128,128,128
	C240.312,384,281.844,356.938,303.688,317.375z M704,192c35.375,0,64,28.594,64,64s-28.625,64-64,64c-35.312,0-64-28.594-64-64
	S668.688,192,704,192z M448,64c70.625,0,128,57.344,128,128s-57.375,128-128,128c-70.656,0-128-57.344-128-128S377.344,64,448,64z
	 M192,320c-35.312,0-64-28.594-64-64s28.688-64,64-64c35.406,0,64,28.594,64,64S227.406,320,192,320z"/></svg>
