<svg height="1024" width="896" xmlns="http://www.w3.org/2000/svg"><path d="M448,192C448,86,362.062,0,256,0C150,0,64,86,64,192c0,106.062,86,192,192,192C362.062,384,448,298.062,448,192z M256,320
	c-70.656,0-128-57.344-128-128S185.344,64,256,64s128,57.344,128,128S326.656,320,256,320z M384,384H256H128
	C57.344,384,0,441.344,0,512v128c0,70.625,57.344,128,128,128v256h256V768c70.656,0,128-57.375,128-128V512
	C512,441.344,454.656,384,384,384z M448,640c0,35.375-28.594,64-64,64V576h-64v384H192V576h-64v128c-35.312,0-64-28.625-64-64V512
	c0-35.312,28.688-64,64-64h256c35.406,0,64,28.688,64,64V640z M768,192V64H640v128H512v128h128v128h128V320h128V192H768z"/></svg>
