<svg height="1024" width="896" xmlns="http://www.w3.org/2000/svg"><path d="M128,448H0v128h128v128l192-192L128,320V448z M768,384H640H512c-70.656,0-128,57.344-128,128v128
	c0,70.625,57.344,128,128,128v256h256V768c70.625,0,128-57.375,128-128V512C896,441.344,838.625,384,768,384z M832,640
	c0,35.375-28.625,64-64,64V576h-64v384H576V576h-64v128c-35.406,0-64-28.625-64-64V512c0-35.312,28.594-64,64-64h256
	c35.375,0,64,28.688,64,64V640z M832,192C832,86,746.062,0,640,0S448,86,448,192c0,106.062,85.938,192,192,192S832,298.062,832,192z
	 M640,320c-70.625,0-128-57.344-128-128S569.375,64,640,64s128,57.344,128,128S710.625,320,640,320z"/></svg>
