<svg height="1024" width="768.051" xmlns="http://www.w3.org/2000/svg"><path d="M655.461,473.469c11.875,81.719-13.062,167.781-76.812,230.594c-94.188,92.938-239.5,104.375-346.375,34.562l74.875-73
	L31.96,627.25L70.367,896l84.031-80.5c150.907,111.25,364.938,100.75,502.063-34.562c79.5-78.438,115.75-182.562,111.25-285.312
	L655.461,473.469z M189.46,320.062c94.156-92.938,239.438-104.438,346.313-34.562l-75,72.969l275.188,38.406L697.586,128
	l-83.938,80.688C462.711,97.344,248.742,107.969,111.585,243.25C32.085,321.656-4.133,425.781,0.335,528.5l112.25,22.125
	C100.71,468.875,125.71,382.906,189.46,320.062z"/></svg>
